<svg width="26" height="87" viewBox="0 0 26 87" fill="none" xmlns="http://www.w3.org/2000/svg">
<path fill-rule="evenodd" clip-rule="evenodd" d="M9.59998 7.63425C11.6 6.40538 14.13 8.19975 15.17 11.0381C16.08 13.5068 16.65 18.792 15.17 21.9023C13.69 25.0234 11.17 24.6536 9.68998 23.8924C8.20998 23.142 6.72998 19.0748 6.72998 15.9536C6.72998 12.8325 7.59998 8.86313 9.59998 7.63425ZM9.77998 20.967C10.04 22.9571 11.52 23.7075 12.3 23.5226C13.09 23.3269 13.21 22.4786 13.09 20.5864C13.03 19.6403 12.74 11.0381 12.74 9.80925C12.74 8.58038 11.61 8.58038 10.74 8.58038C9.86998 8.58038 9.34998 8.961 9.34998 10.1899C9.34998 11.4188 9.51998 18.9769 9.77998 20.967Z" fill="#F4CE77"/>
<path d="M7.70004 5.45926C8.32004 5.12214 12.07 0.92439 12.4 0.565515C12.73 0.20664 13.83 -0.14136 12.73 1.13101C11.63 2.40339 8.82004 5.66589 8.16004 6.52501C7.51004 7.37326 6.01004 7.59076 5.88004 6.80777C5.75004 6.02477 5.88004 5.17651 5.88004 4.32826C5.88004 3.48001 6.27004 3.40389 7.25004 3.40389C8.23004 3.40389 8.42004 3.82802 7.97004 4.39352C7.52004 4.95901 6.52004 6.09001 7.70004 5.45926Z" fill="#F4CE77"/>
<path d="M2.48003 27.579C3.19003 27.8183 2.74003 27.9379 2.48003 28.9928C2.22003 30.0585 1.89003 30.7002 2.15003 30.8415C2.41003 30.9829 3.26003 30.1999 3.98003 29.2103C4.26003 28.8297 4.65003 28.3403 4.79003 27.8944C5.06003 27.0135 5.37003 26.9157 5.09003 28.0032C4.63003 29.7758 3.59003 30.7654 2.74003 31.5484C1.89003 32.3314 1.31003 32.19 1.11003 31.0482C0.910029 29.9172 0.780029 28.5687 0.780029 28.1445C0.780029 27.7204 1.63003 27.2963 2.48003 27.579Z" fill="#F4CE77"/>
<path d="M7.36993 28.7209C7.75993 28.6556 8.66993 26.6655 8.89993 26.0239C9.12993 25.3822 9.02993 24.8494 8.34993 24.8494C7.66993 24.8494 7.07993 24.708 7.07993 25.8064C7.07993 26.9047 6.77993 28.8296 7.36993 28.7209Z" fill="#F4CE77"/>
<path d="M20.61 35.5286C20.85 35.5612 21 37.2795 21.44 40.1179C21.87 42.9562 22.79 45.414 22.79 45.8816C22.79 46.3492 21.49 46.2622 20.62 46.2622C19.75 46.2622 19.27 46.4471 19.23 45.5554C19.19 44.6527 19.45 36.4312 19.49 35.9527C19.52 35.4851 19.96 35.4307 20.61 35.5286Z" fill="#F4CE77"/>
<path d="M15.61 30.9938C15.61 31.32 17 45.6968 17 45.9795C17 46.2623 16.82 46.2514 16.08 46.284C15.35 46.3166 14.43 46.2514 14.04 46.284C13.72 46.2949 13.69 45.936 13.78 44.6636C13.87 43.3913 13.74 30.9938 13.74 30.9938C13.74 30.9938 13 30.9938 12.83 30.9938C12.66 30.9938 12.57 29.6453 12.83 29.6344C13.09 29.6235 19.04 29.6996 19.22 29.6344C19.4 29.5691 19.66 29.7649 19.57 30.3739C19.48 30.9938 18.79 32.8751 18.7 33.0709C18.61 33.2558 18.05 33.2558 18 32.973C17.96 32.6903 17.87 31.1569 17.85 31.059C17.83 30.9611 15.61 30.9938 15.61 30.9938Z" fill="#F4CE77"/>
<path fill-rule="evenodd" clip-rule="evenodd" d="M12.1396 45.5306C12.2679 45.5458 12.3978 45.5611 12.4101 45.762C12.4401 46.0991 12.3901 46.284 12.0101 46.284C11.9039 46.284 11.6284 46.2809 11.2787 46.2771C10.3113 46.2663 8.77559 46.2492 8.68011 46.2731C8.55011 46.3058 8.79011 43.7501 8.79011 43.7501C8.79011 43.7501 8.84011 43.413 8.64011 43.6523C8.59 43.7122 8.4633 43.88 8.29714 44.1001C7.80011 44.7584 6.94995 45.8844 6.74011 45.9904C6.45011 46.1318 5.13011 46.2731 4.54011 45.7511C3.95011 45.2291 2.82011 43.3586 2.69011 42.108C2.56011 40.8574 2.58011 39.2044 3.19011 37.4753C3.80011 35.757 5.61011 33.7451 6.19011 33.4841C6.77011 33.2231 7.57011 33.1796 8.00011 33.1796C8.07372 33.1796 8.14557 33.1825 8.2141 33.1852C8.54594 33.1985 8.80011 33.2086 8.80011 32.8751C8.80011 32.4728 8.80011 31.3635 8.78011 31.2004C8.75011 31.0373 8.58011 30.7763 8.21011 30.7763C7.84011 30.7763 7.58011 30.8415 7.38011 31.1025C7.32866 31.1732 7.28015 31.2598 7.2302 31.349C7.09568 31.5891 6.95076 31.8479 6.71011 31.8638C6.46086 31.8807 6.11453 31.8713 5.93105 31.8662C5.87897 31.8648 5.84001 31.8638 5.82011 31.8638C5.73011 31.8638 5.65011 31.4396 5.58011 31.0373C5.52011 30.6349 5.56011 29.9498 5.78011 29.8736C6.00011 29.8084 9.49011 29.7105 9.63011 29.9715C9.63397 29.9789 9.63806 29.9865 9.64238 29.9946C9.7722 30.2376 10.1075 30.865 10.6301 35.1698C10.776 36.3713 10.9284 37.6641 11.0758 38.9139C11.474 42.2908 11.8352 45.3543 11.9301 45.4575C11.9801 45.5118 12.0595 45.5212 12.1396 45.5306ZM6.77011 44.9138C6.96011 44.7941 8.50011 43.2825 8.57011 42.456C8.60011 42.0428 8.58011 34.3215 8.57011 34.1693C8.55011 33.9409 7.59011 34.0061 7.04011 34.0496C6.49011 34.0931 6.01011 34.7348 5.66011 35.496C5.31011 36.2573 5.51011 43.761 5.53011 44.4461C5.55011 45.1313 6.57011 45.0334 6.77011 44.9138Z" fill="#F4CE77"/>
<path d="M19.44 65.1521C19.35 65.3479 19.27 66.1635 19.59 66.2179C19.92 66.2614 20.22 66.3158 20.46 66.3593C20.7 66.4028 21.24 66.4789 22.05 66.0548C22.85 65.6306 24.7 63.5535 24.88 63.3578C25.06 63.162 25.1 62.8575 24.58 62.8358C24.06 62.814 22.15 62.814 21.93 62.8358C21.71 62.8575 21.69 63.1403 21.69 63.684C21.69 64.2278 21.73 65.1956 21.65 65.4131C21.56 65.6306 20.76 65.6959 20.5 65.5328C20.24 65.3696 20.13 65.1086 19.93 65.0869C19.72 65.0543 19.49 65.0325 19.44 65.1521Z" fill="#F4CE77"/>
<path fill-rule="evenodd" clip-rule="evenodd" d="M15.5201 69.948C15.7601 69.7414 17.2801 68.817 17.9801 68.4146C18.6701 68.0123 19.0201 68.1754 18.7801 68.8388C18.7314 68.9628 18.6182 69.2381 18.461 69.6202C17.7775 71.2813 16.2642 74.9594 15.6301 76.9841C14.8501 79.4745 12.7401 85.4666 12.2801 86.1953C11.8201 86.9239 11.5801 86.478 11.7101 86.1953C11.8401 85.9125 12.8301 83.2373 14.0401 79.692C15.2501 76.1468 17.0101 71.1334 17.4701 70.2634C17.9301 69.3934 17.7601 69.3934 17.5601 69.5783C17.3601 69.7631 16.1901 70.6223 15.7101 70.9485C15.2401 71.2748 14.9501 71.2748 14.5401 71.253C14.1301 71.2313 14.0401 71.2095 14.0401 70.5896C14.0401 70.4178 14.0593 70.0981 14.0817 69.7246C14.1402 68.7504 14.2208 67.41 14.0401 67.3706C13.6501 67.2728 13.4701 67.0879 12.8001 66.0004C12.1201 64.9129 11.3001 61.9549 11.2301 59.2361C11.1601 56.5174 11.4701 54.984 12.2501 53.5159C13.0301 52.0586 13.8101 51.3953 15.0301 51.417C16.2501 51.4388 16.7501 51.6454 17.5101 52.5263C18.2701 53.4071 19.7501 55.8649 19.6601 60.2584C19.5705 64.6327 18.7969 65.6867 17.971 66.812L17.9601 66.8269C17.3127 67.709 16.708 67.7311 16.3403 67.7446C16.2365 67.7484 16.1517 67.7515 16.0901 67.773C15.8101 67.86 15.5501 68.4255 15.3501 69.0454C15.1501 69.6653 15.2801 70.1655 15.5201 69.948ZM14 65.9706C13.9991 66.4899 13.9985 66.8057 14.3701 66.5985C14.7601 66.381 15.3801 65.424 15.6601 64.9781C15.9401 64.5323 16.2201 64.4996 16.4601 64.8585C16.6558 65.1547 16.5038 65.6322 16.3433 66.1366C16.3152 66.2247 16.2868 66.3138 16.2601 66.4028C16.0801 67.0009 16.2801 67.0988 16.5501 67.0988C16.5825 67.0988 16.6132 67.1014 16.6423 67.104C16.8552 67.1225 16.9809 67.1334 17.0601 66.033C17.1501 64.7824 16.8301 54.4403 16.7601 53.6899C16.6901 52.9395 16.4101 52.0369 15.5201 52.0151C14.6301 51.9934 13.6601 52.0151 13.6501 53.2005C13.6501 53.4038 13.7265 56.0644 13.8079 58.8993C13.9007 62.1316 14.0001 65.5904 14.0001 65.8916C14.0001 65.9185 14 65.9448 14 65.9706Z" fill="#F4CE77"/>
</svg>
