<svg width="66" height="87" viewBox="0 0 66 87" fill="none" xmlns="http://www.w3.org/2000/svg">
<path d="M16.5995 5.14526C16.2552 5.16218 13.7061 5.14526 13.4644 5.14526C13.2227 5.14526 13.2227 3.41902 13.1714 2.52205C13.1201 1.63355 12.9297 0.905822 12.4975 1.23584C12.0653 1.57432 11.0471 2.46282 11.0471 3.1567C11.0471 3.85904 11.6771 17.3982 11.721 17.8466C11.7723 18.2951 12.2997 18.2359 12.9297 18.2951C13.5596 18.3544 14.424 18.1851 14.4752 17.6266C14.5265 17.0681 13.8966 15.3588 13.6768 15.0627C13.4571 14.7665 13.3545 14.3096 13.3545 14.1403C13.3545 13.9711 13.6475 13.9711 14.2921 13.9711C14.9367 13.9711 16.2552 14.0134 16.5995 14.0134C16.9365 14.0134 17.1562 14.2249 16.8632 14.7242C16.5702 15.2234 16.1747 15.5196 16.1014 16.3997C16.0282 17.2797 15.9183 18.4051 14.7243 19.0736C13.5303 19.7421 12.0433 19.7421 11.2156 19.0736C10.3879 18.4051 8.53461 16.8989 8.13905 13.218C7.7435 9.53701 8.24893 5.65298 8.93749 4.10444C9.62604 2.5559 11.2888 0.761968 12.0873 0.254251C12.8857 -0.245004 13.8966 0.0427026 14.3654 0.668887C14.8342 1.29507 15.9183 3.34286 16.1014 3.76596C16.2845 4.1806 16.6435 4.43445 16.7167 4.60369C16.79 4.78139 16.9145 5.12833 16.5995 5.14526Z" fill="#F4CE77"/>
<path d="M21.2238 0.0362229C20.8929 0.0693504 21.0268 19.068 21.0268 19.2667C21.0268 19.4655 21.3026 19.5152 21.8462 19.5566C22.3898 19.598 24.6509 19.5566 24.9188 19.5566C25.1867 19.5566 24.7218 17.7594 24.5328 16.1196C24.3358 14.4798 22.7443 0.566263 22.7049 0.284679C22.6655 0.00309539 22.0431 -0.0465958 21.2238 0.0362229Z" fill="#F4CE77"/>
<path d="M5.90885 27.8192C6.05576 27.8604 6.88582 27.9427 6.95927 27.8192C7.03273 27.6958 7.06946 27.5311 7.50285 27.4899C7.93624 27.4488 8.08315 28.4284 8.23006 29.3175C8.37697 30.2148 8.42104 30.4536 8.45043 30.7005C8.47981 30.9475 7.97296 30.4536 7.64976 30.0502C7.32655 29.6468 6.30551 29.2846 5.61503 30.7664C4.92454 32.2482 3.5803 35.788 3.54357 37.7803C3.50685 39.7725 3.50685 43.7157 3.54357 44.2096C3.5803 44.6953 3 44.6953 3 45.1481C3 45.5927 3.07346 45.675 3.5803 45.675C4.08715 45.675 5.72521 45.675 6.04842 45.675C6.37163 45.675 6.51854 45.5927 6.51854 44.7365C6.51854 43.8803 6.04842 33.1455 6.19533 32.0835C6.34224 31.0298 6.84909 31.0627 7.39266 31.4744C7.93624 31.886 8.36963 32.2893 8.66345 33.7958C8.95727 35.3023 9.71387 44.613 9.7506 44.9423C9.78732 45.2716 10.0444 45.3457 10.6247 45.3457C11.205 45.3457 13.6364 45.3457 13.8935 45.3045C14.1506 45.2634 13.8935 44.9423 13.6364 44.3249C13.3793 43.7157 12.6962 41.9211 12.4758 40.2993C12.2554 38.6693 11.3519 34.8907 10.588 31.639C9.82405 28.3873 9.31721 26.4691 8.70018 26.2304C8.08315 25.9834 6.08515 26.1481 5.90885 26.2304C5.72521 26.3127 5.64441 27.7369 5.90885 27.8192Z" fill="#F4CE77"/>
<path fill-rule="evenodd" clip-rule="evenodd" d="M19.6727 25.3639C20.643 25.8351 21.8905 26.5956 22.5106 29.6211C23.1307 32.6466 23.0942 37.5072 22.7732 39.549C22.4522 41.5908 21.6206 43.2688 20.4679 44.1616C19.3152 45.0544 17.6519 44.4427 16.6451 43.2606C15.6384 42.0702 14.3763 39.2927 14.1209 36.8045C13.8656 34.3164 14.0115 29.6624 14.5878 27.943C15.1715 26.2236 16.2439 25.1572 17.3309 25.0415C18.4179 24.9258 19.3006 25.182 19.6727 25.3639ZM20.1277 43.3628C20.2051 43.3545 20.271 43.3474 20.322 43.3432C20.8254 43.3019 20.57 42.4009 20.322 41.5908C20.135 40.9913 19.8736 34.0584 19.7184 29.9437C19.6618 28.4409 19.6193 27.3141 19.5997 27.0089C19.5268 25.8681 18.8775 25.7689 18.2282 25.7276C18.1641 25.7236 18.098 25.7178 18.0309 25.712C17.5407 25.669 16.9931 25.6211 16.7108 26.2318C16.4065 26.8901 16.6792 30.2306 16.8948 32.8722C16.9066 33.0169 16.9183 33.1596 16.9297 33.2996C17.0096 34.2836 17.0885 35.6754 17.169 37.0939C17.3089 39.5601 17.4533 42.107 17.6154 42.7315C17.8449 43.6081 19.4412 43.4366 20.1277 43.3628Z" fill="#F4CE77"/>
<path d="M26.9339 25.3558C27.2688 25.9521 27.8778 29.0414 28.4031 31.9403C28.9283 34.8474 29.6819 38.2432 29.9483 38.326C30.2148 38.4088 31.2272 28.8758 31.4936 27.2359C31.76 25.596 31.6839 25.0659 32.2091 25.0245C32.7344 24.9831 34.2416 25.0659 34.6526 25.0245C35.0637 24.9831 35.0256 25.5463 34.9571 26.1674C34.8886 26.7886 33.0389 34.483 32.5517 36.5287C32.0645 38.5745 31.5012 41.0344 31.349 41.4816C31.1967 41.9289 31.3109 42.9973 31.9123 43.486C32.5136 43.9746 33.0008 44.1485 33.0389 44.2645C33.0769 44.3805 33.3738 44.5875 32.7039 44.5875C32.0341 44.5875 29.0577 44.5875 28.7913 44.5875C28.5248 44.5875 28.5248 43.8504 28.639 43.1132C28.7532 42.3761 28.1899 38.4917 27.6266 36.2388C27.0633 33.986 25.4039 27.153 25.1831 26.9046C24.9547 26.6561 25.008 26.1509 25.0004 25.8113C24.9928 25.4717 25.145 25.3061 25.7845 25.2647C26.4239 25.2232 26.7132 24.9665 26.9339 25.3558Z" fill="#F4CE77"/>
<path d="M36.9759 45.0829C36.9337 45.4882 36.0985 46.2988 35.5164 47.2732C34.9343 48.2563 34.7234 48.9375 34.31 48.9375C33.8967 48.9375 33.8967 48.5322 34.31 47.0059C34.7234 45.4796 34.3522 44.7121 34.9765 44.6259C35.6008 44.5396 36.5203 44.6259 36.8072 44.6259C37.094 44.6259 36.9759 45.0829 36.9759 45.0829Z" fill="#F4CE77"/>
<path d="M46.299 54.9291C45.9894 54.9291 43.5821 54.9291 43.3189 54.9291C43.048 54.9291 42.7074 54.7184 42.7074 54.0102C42.7074 53.3021 42.4752 50.7224 42.1733 50.343C41.8637 49.972 41.4457 50.1322 41.1825 50.343C40.9116 50.5537 40.7645 51.8015 40.8729 53.1335C40.989 54.4655 41.5618 64.6747 41.8327 65.6274C42.1036 66.5884 42.2507 67.2123 42.8235 67.1701C43.3963 67.128 43.3963 67.128 43.3963 67.128C43.3963 67.128 43.5898 67.2544 43.9304 66.5884C44.271 65.9224 44.3484 63.7558 44.1239 63.2584C43.8917 62.761 43.5898 62.6767 43.5666 62.213C43.5434 61.7494 44.0465 61.6735 44.4645 61.8758C44.8825 62.0866 46.6861 62.8369 46.9105 62.9971C47.135 63.1573 46.9105 63.7052 46.5313 64.6241C46.152 65.5431 45.4631 67.8699 44.5806 68.2492C43.6982 68.6202 41.825 68.7045 40.989 67.794C40.1453 66.8751 38.9609 65.4588 38.4655 62.7526C37.9701 60.0464 37.8153 55.9661 38.272 53.7573C38.7287 51.5485 39.8821 49.5927 41.1438 49.1374C42.4055 48.6822 43.2105 49.011 43.8994 50.0564C44.5884 51.1017 45.9662 53.8079 46.2681 53.9681C46.57 54.1367 46.6861 54.9291 46.299 54.9291Z" fill="#F4CE77"/>
<path fill-rule="evenodd" clip-rule="evenodd" d="M30.5324 50.0454C32.3362 49.9203 33.6424 50.3375 34.9875 52.232C36.3325 54.1264 37.1722 57.0558 36.9701 61.8795C36.7679 66.7033 35.9827 67.8133 34.9486 68.6979C33.9145 69.5742 32.2196 69.8329 31.1467 69.3823C30.0659 68.9316 28.7598 67.4461 27.6479 63.3233C26.5361 59.2006 27.0726 54.9109 27.6479 52.933C27.8967 52.0818 28.7287 50.1706 30.5324 50.0454ZM31.793 67.7437C32.2583 68.0098 32.7679 68.3013 33.2148 68.1888C33.7202 68.0637 33.8679 67.8216 33.8679 66.8285C33.8679 65.8354 33.2925 52.3906 33.2148 51.9816C33.137 51.5643 32.6939 51.1554 31.9941 51.1554C31.8197 51.1554 31.6351 51.143 31.4519 51.1306C30.9003 51.0934 30.3616 51.0571 30.1515 51.364C29.9466 51.6745 30.2834 59.2068 30.4634 63.2341C30.5157 64.4038 30.5548 65.2778 30.5635 65.5933C30.6024 66.9954 31.1389 67.3626 31.6365 67.6547C31.688 67.6836 31.7402 67.7135 31.793 67.7437Z" fill="#F4CE77"/>
<path d="M12.8183 50.3577C12.4135 50.6003 12.8183 52.9761 12.8183 52.9761C12.8183 52.9761 11.1543 53.4697 10.7795 53.4278C10.4048 53.386 10 53.1351 10 53.6788C10 54.2142 10 54.7914 10 55.0424C10 55.2933 10.5921 54.9169 11.2592 54.7496C11.9263 54.5823 12.6309 54.0469 12.8183 54.4568C13.0056 54.8667 12.8183 68.8035 12.8183 69.0879C12.8183 69.3807 12.8557 69.5814 13.7477 69.5814C14.6396 69.5814 15.9663 69.6233 16.3411 69.5814C16.7084 69.5396 16.6409 69.2468 16.3411 67.0216C16.0413 64.7964 14.8195 53.9632 14.7821 53.5868C14.7446 53.2187 15.7415 53.0514 16.1162 52.9678C16.4835 52.8841 16.5809 53.1351 16.5884 54.415C16.5959 55.6949 17.4129 62.0609 17.4504 63.2154C17.4879 64.3698 17.4129 65.6162 17.7127 65.9843C18.0126 66.3524 18.8221 65.6497 19.3392 65.3234C19.8564 64.9888 21.0782 65.0307 21.0782 65.0307C21.0782 65.0307 21.0782 68.5692 21.0782 68.8871C21.0782 69.205 21.3405 69.205 22.1875 69.2468C23.042 69.2886 23.9264 69.1632 24.3012 69.1632C24.676 69.1632 24.3012 65.198 24.3012 65.198C24.3012 65.198 25.0807 65.2398 25.6354 65.3234C26.19 65.4071 26.0026 64.4534 25.7853 64.2108C25.5604 63.9599 24.0089 63.6336 24.0089 63.6336C24.0089 63.6336 22.5997 51.4787 22.5623 51.1106C22.5248 50.7426 22.4124 50.157 21.9701 50.0733C21.5279 49.9897 20.9358 50.0315 20.6734 50.0733C20.4111 50.1151 20.1562 50.6505 20.4486 50.8597C20.7484 51.0688 20.8908 51.0688 20.9283 52.8004C20.9657 54.5404 21.0407 63.4245 21.0407 63.4245C21.0407 63.4245 19.6316 63.5918 19.1743 64.0017C18.7096 64.4116 18.3049 64.6626 18.3798 63.7508C18.4548 62.8389 18.155 54.5321 17.7877 52.9594C17.4204 51.3867 17.1206 51.554 16.416 51.7631C15.7115 51.9723 14.2649 52.2985 14.2649 52.2985C14.2649 52.2985 14.2649 50.9768 14.2649 50.5251C14.2574 50.0733 13.1106 50.1821 12.8183 50.3577Z" fill="#F4CE77"/>
<path fill-rule="evenodd" clip-rule="evenodd" d="M7.32714 54.3131C7.97487 56.5766 9.55375 62.0942 10.093 64.4632C10.207 64.9639 10.3173 65.4331 10.4195 65.8674C10.8935 67.8823 11.1916 69.1495 10.858 69.3508C10.4885 69.5844 10.0823 69.5829 9.27254 69.58C9.17699 69.5797 9.07581 69.5793 8.96841 69.5793C8.74129 69.5793 8.52713 69.5854 8.33146 69.591C7.65055 69.6104 7.19357 69.6234 7.19357 69.3508C7.19357 69 6.96406 66.9519 6.96406 66.9519L6.84931 67.0743C6.81615 67.1097 6.75169 67.2289 6.66128 67.396C6.43882 67.8073 6.05925 68.509 5.60233 68.9673C4.95971 69.612 4.27884 69.8567 2.80236 69.1305C1.32587 68.4043 0.163042 65.9891 0.0100381 62.2765C-0.142966 58.5638 1.48653 56.5484 2.61875 55.4224C3.75098 54.2964 5.60233 54.2556 5.60233 54.2556V52.1993C5.60233 52.1993 5.25807 52.1178 4.73021 52.4441C4.20234 52.7705 3.48323 52.844 3.25372 52.4441C3.25372 52.4441 3.21547 51.7261 3.25372 51.3997C3.28794 51.1077 3.72025 51.1096 4.53968 51.1132C4.63609 51.1137 4.73785 51.1141 4.84496 51.1141C5.86243 51.1141 6.35205 51.1141 6.4668 51.3181C6.5397 51.4477 6.65581 51.8835 6.79946 52.4226C6.88194 52.7322 6.9735 53.0758 7.07116 53.4151C7.11301 53.5648 7.20296 53.8791 7.32714 54.3131ZM6.35262 66.7622C6.4216 66.6387 6.48254 66.5296 6.53565 66.446C6.82864 65.9773 6.80604 65.516 6.73644 64.0954C6.73335 64.0323 6.73016 63.9672 6.72691 63.9002C6.6504 62.3254 5.96954 55.8793 5.77828 55.6753C5.77828 55.6753 5.25042 55.6345 4.72256 55.6753C4.19469 55.7161 3.28432 55.9609 3.28432 55.9609C3.28432 55.9609 3.24607 63.0108 3.28432 64.5856C3.32257 66.1604 3.92694 68.3391 4.79906 68.2983C5.5135 68.2645 6.02416 67.3503 6.35262 66.7622Z" fill="#F4CE77"/>
<path d="M2.38545 75.0936C2.75893 75.0936 2.98626 75.6895 2.38545 76.1645C1.78463 76.6396 1.02144 77.316 1.41927 77.3563C1.81711 77.3965 2.82388 76.8007 3.50588 76.3981C4.18789 76.0035 4.50453 75.3996 4.91049 75.7217C5.30832 76.0438 4.30967 76.7604 3.30291 77.3563C2.29614 77.9521 0.899653 78.548 0.615484 78.1937C0.331316 77.8394 0.574889 76.4061 0.29072 76.0035C0.00655207 75.6009 -0.188306 75.2064 0.29072 75.0856C0.785985 74.9728 1.94702 75.0936 2.38545 75.0936Z" fill="#F4CE77"/>
<path fill-rule="evenodd" clip-rule="evenodd" d="M6.63398 77.3627C7.20334 77.588 7.8092 77.9801 8.38586 79.4652C8.96252 80.9503 9.10851 82.6774 8.92602 84.4128C8.74354 86.1398 7.62671 86.7572 6.63398 86.9241C5.63394 87.0826 5.02808 87.0826 3.98425 86.0147C2.9434 84.9498 2.97672 83.2213 3.0131 81.3337L3.01342 81.3174C3.04991 79.4152 4.11564 77.9801 4.63391 77.6464C5.40766 77.1541 5.99892 77.1124 6.63398 77.3627ZM4.95509 85.1136C4.99159 85.7727 5.35656 85.9396 5.99892 85.8979C6.64127 85.8562 7.08655 85.731 7.00625 85.2388C6.98273 85.0774 6.96299 84.3485 6.93801 83.4256C6.88547 81.4849 6.80971 78.6867 6.62668 78.5058C6.2836 78.1637 4.95509 78.3556 4.95509 78.7227C4.95509 78.7905 4.9539 79.021 4.95216 79.3571C4.94428 80.8806 4.92519 84.5736 4.95509 85.1136Z" fill="#F4CE77"/>
<path d="M12.1993 73.6748C12.0345 73.7169 12.0276 74.6779 12.3709 74.72C12.7141 74.7622 12.9475 74.72 12.9475 74.72C12.9475 74.72 13.1878 75.3438 12.9475 75.5967C12.7073 75.8495 12.316 76.4059 12.1031 76.6672C11.8972 76.9285 11.9727 77.468 12.5768 77.0718C13.1809 76.6756 13.6272 75.6135 13.8262 74.956C14.0322 74.307 13.9979 73.5146 13.9979 73.0931C13.9979 72.6717 13.6958 72.9246 13.4212 73.0931C13.1466 73.2617 12.5013 73.5905 12.1993 73.6748Z" fill="#F4CE77"/>
<path fill-rule="evenodd" clip-rule="evenodd" d="M17.5297 76.2191C17.7044 76.3314 18.2867 78.2394 18.6433 81.0713C18.9999 83.9031 19.0727 85.3622 18.9344 85.6039C18.7888 85.8629 17.2459 85.768 16.9548 85.6039C16.7942 85.5134 16.8107 85.1339 16.8274 84.7539C16.8409 84.4449 16.8544 84.1356 16.7728 83.9808C16.6765 83.7953 16.5891 83.9322 16.4277 84.185C16.2962 84.3909 16.1157 84.6738 15.8412 84.9219C15.7314 85.0211 15.6263 85.1248 15.5236 85.2261C15.0543 85.6891 14.6346 86.1031 14.0435 85.8198C13.3302 85.4831 12.8571 83.9031 13.0391 82.2368C13.2083 80.6307 13.9925 79.7378 14.5641 79.087C14.5825 79.0661 14.6006 79.0455 14.6185 79.0251C15.1934 78.3689 16.0887 78.7833 16.3798 78.9992C16.6709 79.215 16.6345 78.0581 16.3798 77.9631C16.2627 77.9182 15.8294 77.9003 15.3869 77.8821C14.8943 77.8617 14.3902 77.841 14.2982 77.7818C14.1235 77.6696 13.9998 76.4091 14.2982 76.2191C14.4861 76.1032 14.7477 76.1438 15.053 76.1912C15.339 76.2356 15.6634 76.286 16.0013 76.2191C16.7 76.081 17.3551 76.1069 17.5297 76.2191ZM15.7887 83.7504C16.1415 83.3696 16.5161 82.9653 16.6636 82.7203C16.9111 82.2886 16.8092 80.2511 16.6636 80.0784C16.3725 79.733 15.5428 79.7762 15.2225 80.0784C14.9023 80.3806 14.7931 81.9174 14.8295 83.0656C14.8329 83.1986 14.8355 83.3252 14.8379 83.4447C14.8566 84.357 14.8666 84.847 15.1498 84.4729C15.2876 84.2913 15.5324 84.027 15.7887 83.7504Z" fill="#F4CE77"/>
<path fill-rule="evenodd" clip-rule="evenodd" d="M27.2104 77.5179C26.4565 76.4042 25.6224 76.2095 24.7563 76.1316C23.8821 76.0538 22.8556 76.669 22.4145 77.5179C21.9815 78.3668 21.8612 79.4805 21.8612 79.4805C21.8612 79.4805 21.5083 79.792 21.0672 79.4026C20.6341 79.021 20.3133 79.4026 20.3133 79.4026C20.0326 79.7843 19.76 80.8512 20.3534 80.7967C20.5498 80.7787 20.7286 80.7154 20.8916 80.6578C21.2212 80.5412 21.4861 80.4476 21.7008 80.7967C21.8172 80.9889 21.8755 81.2981 21.9421 81.6508C22.0589 82.27 22.2011 83.0235 22.7273 83.5147C23.5533 84.2858 24.9488 84.8621 25.855 84.8231C26.7693 84.7842 27.7236 83.6705 27.9161 82.1129C28.1246 80.5631 27.9642 78.6394 27.2104 77.5179ZM23.7619 79.5195C23.7619 79.1768 23.7619 77.3622 24.0024 77.0974C24.0024 77.0974 24.8285 76.9805 25.2295 77.0974C25.5687 77.1982 25.5852 77.6994 25.6092 78.4257C25.613 78.5408 25.617 78.6616 25.6224 78.7874C25.6625 79.7142 25.6224 80.0179 25.2696 79.979L25.2049 79.9734C24.794 79.9385 23.7619 79.8508 23.7619 79.5195ZM25.024 83.8761C25.519 83.943 25.9046 83.9951 26.1036 83.8341C26.2396 83.7202 26.1755 83.4973 26.0908 83.2026C26.0305 82.9932 25.9599 82.7475 25.9432 82.4789C25.9031 81.8325 25.8229 81.0226 25.8229 81.0226H24.0024V83.2188C24.0024 83.4914 24.0506 83.7562 24.7002 83.8341C24.8124 83.8475 24.9206 83.8621 25.024 83.8761Z" fill="#F4CE77"/>
<path d="M31.0521 77.4074C30.8553 77.8144 30.1846 77.7396 29.9732 77.1582C29.7545 76.5851 29.2514 76.5436 29.3243 77.1582C29.3972 77.7728 29.6159 79.9904 29.6816 81.0535C29.7545 82.1166 29.5649 83.3956 30.1846 83.5949C30.8042 83.7943 31.4093 83.5534 31.6645 83.0219C31.9196 82.4903 31.6863 81.8757 31.3291 81.0535C30.9792 80.2312 30.6876 79.0436 30.9428 78.7113C31.1979 78.3791 32.1675 78.3044 32.5247 78.7529C32.8819 79.2014 32.9184 79.8575 32.707 80.6797C32.4883 81.502 32.6341 82.6481 33.1006 83.1381C33.5672 83.6282 33.8953 83.6697 34.1431 83.0966C34.391 82.5235 34.3254 81.8674 34.1431 80.796C33.9609 79.7329 33.8515 77.316 33.713 76.7014C33.5672 76.0785 33.1735 75.8792 32.9548 76.4107C32.7361 76.9423 32.4883 77.4074 32.306 76.8094C32.1238 76.2114 32.0509 75.5137 32.3425 75.2231C32.6341 74.9324 33.2464 74.8825 34.1431 75.8294C35.0471 76.7762 36.1625 78.2961 35.9802 81.0452C35.798 83.7943 35.0398 84.2428 34.4274 84.4504C33.8151 84.658 33.035 84.7992 32.6486 84.1514C32.2623 83.5036 31.9051 83.9189 31.6134 84.3673C31.3218 84.8158 29.7763 85.2062 28.9817 84.1514C28.1871 83.0966 27.9392 82.1996 28.0121 79.9405C28.085 77.6815 28.5516 76.3941 29.0546 75.8294C29.5576 75.2646 30.1335 76.0785 30.571 76.3692C31.0157 76.6682 31.2344 77.0419 31.0521 77.4074Z" fill="#F4CE77"/>
<path d="M37.0067 77.5567C37.0364 77.9658 38.2779 77.5567 38.2779 77.5567C38.2779 77.5567 38.2036 82.9085 38.092 83.4539C37.9805 83.9993 37.7278 84.468 38.0549 84.7151C38.382 84.9623 40.4412 84.7151 40.4412 84.7151C40.4412 84.7151 40.627 84.6299 40.627 83.9141C40.627 83.1982 40.0397 81.2467 39.8167 80.1985C39.5937 79.1503 39.341 77.4715 39.4525 77.1732C39.564 76.875 40.1884 76.7131 40.2999 77.1732C40.4114 77.6334 40.2999 80.7524 40.627 81.5109C40.9541 82.2693 42.2402 82.525 42.5376 82.525C42.8349 82.525 42.9241 82.6102 42.9241 82.6102C42.9241 82.6102 42.9093 83.5391 42.9241 84.0419C42.939 84.5447 43.0877 84.4595 43.7865 84.4595C44.4853 84.4595 45.0354 84.6725 44.9982 84.1612C44.9611 83.6584 44.9611 82.4739 44.634 80.4542C44.3069 78.4345 43.8608 75.7842 43.8237 75.3581C43.7865 74.9405 42.9539 74.9831 42.9241 75.3581C42.9018 75.733 42.9241 81.4598 42.9241 81.4598C42.9241 81.4598 41.8016 81.545 41.3927 80.7013C40.9913 79.8576 41.3035 77.2073 40.9987 76.2784C40.6939 75.3495 40.4412 75.733 39.9208 76.0228C39.4079 76.321 39.1105 76.321 39.1105 75.7671C39.1105 75.2132 39.1477 75.0001 38.7834 75.0428C38.4191 75.0939 38.2705 75.2558 38.2705 75.7671C38.2705 76.2699 38.1961 76.483 38.1961 76.483C38.1961 76.483 37.9359 76.6108 37.4602 76.8238C36.9918 77.0539 36.9844 77.267 37.0067 77.5567Z" fill="#F4CE77"/>
<path d="M47.8446 69.6157C48.2207 69.6443 47.8446 70.3242 47.4525 70.7465C47.0604 71.1688 46.6923 72.1636 46.5963 72.5143C46.5003 72.865 46.1082 73.0798 46.0282 72.5143C45.9482 71.9489 46.0682 70.36 46.0282 69.9664C45.9882 69.5727 47.3325 69.5799 47.8446 69.6157Z" fill="#F4CE77"/>
<path d="M46.7362 75.1763C46.8038 75.4198 47.4387 79.8412 47.6346 80.8936C47.8305 81.9459 47.9656 82.9904 47.9994 83.3752C48.0331 83.76 46.7295 83.76 46.3985 83.7208C46.0675 83.6815 46 83.6815 46 80.8464C46 78.0114 46 75.8046 46 75.4119C46 75.035 46.6687 74.9172 46.7362 75.1763Z" fill="#F4CE77"/>
<path d="M47.2735 76.6867C47.5815 76.8141 48.0079 76.9257 48.0079 76.4875C48.0079 76.0573 48.0079 76.0971 48.0079 76.0971H49.0187C49.0187 76.0971 48.9793 83.1798 49.0187 83.4586C49.0582 83.7375 49.1767 83.7375 49.919 83.7375C50.6613 83.7375 50.8193 83.7375 51.1273 83.7375C51.4352 83.7375 50.5429 76.0971 50.5429 76.0971H51.7906C51.7906 76.0971 51.7906 76.7265 51.7906 77.085C51.7906 77.4356 52.2565 77.1647 52.6514 76.7663C53.0384 76.376 52.9989 75.0375 52.9989 75.0375H47.0129C47.0287 75.0295 46.8865 76.5273 47.2735 76.6867Z" fill="#F4CE77"/>
<path d="M53.6504 76.4836C53.3806 76.5503 53.452 78.9352 53.452 78.9352C53.452 78.9352 52.8252 79.1604 52.5475 78.9352C52.2698 78.7101 52 78.5433 52 79.0353C52 79.5356 52.1984 79.7358 52.5871 79.8609C52.9759 79.9859 53.333 79.8609 53.333 79.8609C53.333 79.8609 53.2536 83.1548 53.2536 83.4883C53.2536 83.8219 53.452 83.7385 53.8408 83.6968C54.2296 83.6551 54.9754 83.53 55.4515 83.4883C55.9196 83.4466 56.5068 83.53 56.4671 82.9963C56.4274 82.4626 56.1497 82.7462 55.7213 82.2542C55.2928 81.7622 54.9754 79.8609 54.9754 79.8609L57.6811 79.9026C57.6811 79.9026 57.6811 82.6628 57.6811 83.038C57.6811 83.4049 57.6811 83.4049 58.3476 83.4883C59.014 83.5717 59.5219 83.6134 59.8392 83.4883C60.1566 83.3632 59.9582 81.7205 59.6409 79.1187C59.3235 76.5252 59.0537 74.9158 58.9744 74.3821C58.895 73.8484 57.8794 73.765 57.8794 74.3821C57.8794 74.9992 57.6811 78.8435 57.6811 78.8435H54.7374C54.7374 78.8435 54.4597 77.4342 54.3486 76.9005C54.2375 76.3668 53.9598 76.4002 53.6504 76.4836Z" fill="#F4CE77"/>
<path d="M65.0737 77.0253C65.0737 77.0253 62.847 77.0687 62.6287 77.0253C62.4104 76.9819 62.5195 75.7846 62.6287 75.2641C62.7378 74.7522 61.9447 74.5353 61.981 75.2641C62.0174 75.9929 62.1993 82.04 62.3012 82.3784C62.4104 82.7254 62.9852 82.8469 63.5237 82.3784C64.0622 81.9099 64.0622 80.0185 64.0258 79.55C63.9894 79.0815 64.2441 78.9948 64.6371 79.4633C65.03 79.9318 65.4303 80.192 65.8232 80.6606C66.2162 81.1291 65.896 81.3893 65.4303 81.3893C64.9645 81.3893 64.5643 82.4652 63.9894 83.1939C63.4146 83.9227 62.1557 84.0095 61.3334 82.8903C60.5038 81.7798 59.9654 79.8016 60.0017 77.6587C60.0381 75.5157 61.297 74.0147 62.1266 73.954C62.9561 73.8933 63.4218 74.5353 63.9967 75.3075C64.5716 76.0796 64.7753 76.2965 65.2192 76.2965C65.503 76.2965 65.6122 76.9385 65.0737 77.0253Z" fill="#F4CE77"/>
</svg>
