<svg width="12" height="16" viewBox="0 0 12 16" fill="none" xmlns="http://www.w3.org/2000/svg">
<path fill-rule="evenodd" clip-rule="evenodd" d="M10.5763 3.49525C10.6477 3.65351 10.7237 3.82183 10.7665 3.98225C10.7679 3.98652 10.7716 3.99727 10.7771 4.01337C10.8271 4.15897 11.0271 4.74184 11.027 4.92094V5.67468C11.027 7.00679 10.1699 8.35383 9.31358 9.69949C8.99049 10.2072 8.66752 10.7148 8.39076 11.2213C8.34039 11.3152 8.25964 11.4126 8.17744 11.5118C8.09756 11.6082 8.01631 11.7062 7.96022 11.8043C7.89085 11.9257 7.81698 12.0494 7.74228 12.1745C7.63312 12.3573 7.52219 12.5431 7.42093 12.7289C7.0829 13.3051 6.74128 13.8937 6.39765 14.4858C6.10511 14.9899 5.81111 15.4965 5.51662 16C5.36734 15.7588 5.21785 15.5176 5.06831 15.2763C4.17748 13.8389 3.28456 12.3981 2.41952 10.9369C2.22743 10.6111 2.02202 10.2811 1.81507 9.94863C1.01036 8.65582 0.18239 7.32564 0.0237806 6.05872C0.00982486 5.93068 0 5.67471 0 5.64622V4.96342C0.355705 1.62138 3.01999 0 5.43903 0C7.24606 0 9.484 0.881778 10.5082 3.34223C10.5295 3.3917 10.5526 3.44293 10.5763 3.49525ZM3.60974 6.07297C3.99392 7.05448 4.77224 7.40989 5.48331 7.40989C6.62166 7.40989 7.56339 6.49984 7.56339 5.36201C7.56339 4.22415 6.68299 3.31381 5.54464 3.31381C4.61999 3.31381 3.55712 3.88281 3.55712 5.13406V5.57494C3.55712 5.57634 3.55711 5.5784 3.55709 5.58108C3.55682 5.63367 3.55528 5.92432 3.60974 6.07297Z" fill="#F4CE77"/>
</svg>
