<svg width="16" height="16" viewBox="0 0 16 16" fill="none" xmlns="http://www.w3.org/2000/svg">
<path d="M12.6153 10.3615C12.0732 9.82424 11.3964 9.82424 10.8577 10.3615C10.4468 10.7706 10.0359 11.1796 9.63195 11.5956C9.52145 11.71 9.42822 11.7342 9.29356 11.658C9.02768 11.5124 8.74454 11.3945 8.48902 11.2351C7.29775 10.4829 6.29985 9.51573 5.41589 8.42728C4.97737 7.88653 4.58719 7.30764 4.3144 6.65595C4.25915 6.52423 4.26951 6.43757 4.37656 6.33011C4.78746 5.93148 5.188 5.52244 5.59199 5.11341C6.15483 4.54492 6.15483 3.87937 5.58854 3.30741C5.26742 2.98157 4.94629 2.66266 4.62517 2.33682C4.29368 2.00405 3.96565 1.66781 3.63072 1.3385C3.0886 0.80814 2.41183 0.80814 1.87317 1.34197C1.45881 1.751 1.06172 2.17043 0.640462 2.57254C0.250279 2.94344 0.0534607 3.39754 0.0120253 3.9279C-0.0535807 4.79103 0.157049 5.60564 0.454003 6.39944C1.06172 8.04251 1.98711 9.50187 3.10932 10.8399C4.62517 12.6494 6.43451 14.081 8.55117 15.114C9.50419 15.5785 10.4917 15.9355 11.5656 15.9944C12.3045 16.036 12.9468 15.8488 13.4613 15.27C13.8135 14.8748 14.2106 14.5143 14.5835 14.1364C15.136 13.5749 15.1394 12.8955 14.5904 12.3408C13.9343 11.6788 13.2748 11.0201 12.6153 10.3615Z" fill="#F4CE77"/>
<path d="M11.7302 8.47053L13 8.26204C12.8004 7.14018 12.2498 6.12421 11.4136 5.31673C10.5292 4.46623 9.41087 3.93012 8.17894 3.76465L8 4.99241C8.9532 5.12148 9.82037 5.53515 10.5052 6.1937C11.1521 6.81586 11.5754 7.60348 11.7302 8.47053Z" fill="#F4CE77"/>
<path d="M13.423 2.52713C11.9899 1.14338 10.1766 0.269604 8.17494 0L8 1.2051C9.72918 1.43897 11.2969 2.19581 12.5349 3.38791C13.709 4.52154 14.4794 5.95402 14.7586 7.52941L16 7.32477C15.6737 5.49926 14.7822 3.84266 13.423 2.52713Z" fill="#F4CE77"/>
</svg>
