<svg width="9" height="16" viewBox="0 0 9 16" fill="none" xmlns="http://www.w3.org/2000/svg">
<path d="M8.37804 0.00332907L6.2899 0C3.94394 0 2.42788 1.54552 2.42788 3.93762V5.75313H0.328341C0.146916 5.75313 0 5.89927 0 6.07954V8.71001C0 8.89028 0.147083 9.03626 0.328341 9.03626H2.42788V15.6738C2.42788 15.854 2.57479 16 2.75622 16H5.49552C5.67694 16 5.82386 15.8539 5.82386 15.6738V9.03626H8.2787C8.46013 9.03626 8.60705 8.89028 8.60705 8.71001L8.60805 6.07954C8.60805 5.99299 8.57337 5.91009 8.51189 5.84884C8.45041 5.78758 8.36665 5.75313 8.27954 5.75313H5.82386V4.2141C5.82386 3.47438 6.00126 3.09886 6.97104 3.09886L8.37771 3.09836C8.55897 3.09836 8.70588 2.95222 8.70588 2.77211V0.329578C8.70588 0.149642 8.55913 0.00366197 8.37804 0.00332907Z" fill="#F4CE77"/>
</svg>
