<svg width="16" height="16" viewBox="0 0 16 16" fill="none" xmlns="http://www.w3.org/2000/svg">
<path fill-rule="evenodd" clip-rule="evenodd" d="M13.6562 0H2.34375C1.05151 0 0 1.05151 0 2.34375V13.6562C0 14.9485 1.05151 16 2.34375 16H13.6562C14.9485 16 16 14.9485 16 13.6562V2.34375C16 1.05151 14.9485 0 13.6562 0ZM8.03125 12.1875C5.70496 12.1875 3.8125 10.295 3.8125 7.96875C3.8125 5.64246 5.70496 3.75 8.03125 3.75C10.3575 3.75 12.25 5.64246 12.25 7.96875C12.25 10.295 10.3575 12.1875 8.03125 12.1875ZM11.3125 3.28125C11.3125 4.05664 11.9434 4.6875 12.7188 4.6875C13.4941 4.6875 14.125 4.05664 14.125 3.28125C14.125 2.50586 13.4941 1.875 12.7188 1.875C11.9434 1.875 11.3125 2.50586 11.3125 3.28125Z" fill="#F4CE77"/>
<path d="M12.6666 2.77783C12.4214 2.77783 12.2222 2.97702 12.2222 3.22228C12.2222 3.46753 12.4214 3.66672 12.6666 3.66672C12.9119 3.66672 13.1111 3.46753 13.1111 3.22228C13.1111 2.97702 12.9119 2.77783 12.6666 2.77783Z" fill="#F4CE77"/>
<path d="M8.05561 4.66675C6.24844 4.66675 4.77783 6.13736 4.77783 7.94453C4.77783 9.75169 6.24844 11.2223 8.05561 11.2223C9.86278 11.2223 11.3334 9.75169 11.3334 7.94453C11.3334 6.13736 9.86278 4.66675 8.05561 4.66675Z" fill="#F4CE77"/>
</svg>
