<svg width="22" height="12" viewBox="0 0 22 12" fill="none" xmlns="http://www.w3.org/2000/svg">
<path d="M20.9915 10.8373C20.966 10.7824 20.9422 10.7369 20.92 10.7004C20.5539 10.0432 19.8542 9.23651 18.8214 8.28012L18.7996 8.25822L18.7886 8.24748L18.7776 8.23647H18.7665C18.2978 7.79113 18.0009 7.49169 17.8766 7.33838C17.6492 7.04634 17.5982 6.75074 17.7225 6.45122C17.8103 6.22492 18.1402 5.74701 18.7114 5.01684C19.0119 4.62987 19.2498 4.31973 19.4255 4.08607C20.6929 2.40687 21.2423 1.33383 21.0738 0.86655L21.0083 0.757352C20.9643 0.691611 20.8508 0.63147 20.6679 0.576621C20.4845 0.521888 20.2502 0.512836 19.9644 0.549312L16.8001 0.571098C16.7488 0.552994 16.6756 0.554682 16.5803 0.576621C16.485 0.598561 16.4374 0.609569 16.4374 0.609569L16.3823 0.636993L16.3386 0.66994C16.3019 0.691726 16.2616 0.730043 16.2177 0.784815C16.1739 0.839395 16.1373 0.903448 16.108 0.976439C15.7635 1.8598 15.3718 2.68111 14.9322 3.44032C14.6612 3.89303 14.4123 4.28536 14.1849 4.61756C13.9579 4.94964 13.7674 5.19431 13.6137 5.35115C13.4598 5.50813 13.3209 5.6339 13.1961 5.72891C13.0715 5.82395 12.9764 5.86411 12.9106 5.84942C12.8446 5.83473 12.7824 5.82016 12.7236 5.80558C12.6211 5.73984 12.5387 5.65043 12.4765 5.53728C12.4141 5.42414 12.3721 5.28172 12.3501 5.11016C12.3282 4.93848 12.3153 4.79081 12.3116 4.66665C12.3082 4.54265 12.3098 4.36725 12.3172 4.14095C12.3248 3.91454 12.3282 3.76135 12.3282 3.68103C12.3282 3.40357 12.3337 3.10244 12.3446 2.77757C12.3556 2.4527 12.3646 2.1953 12.3721 2.00567C12.3796 1.81585 12.383 1.61502 12.383 1.4033C12.383 1.19157 12.3701 1.02553 12.3446 0.905021C12.3193 0.784661 12.2806 0.667831 12.2295 0.554567C12.1781 0.441418 12.1029 0.353891 12.0042 0.291755C11.9054 0.229696 11.7824 0.180448 11.6362 0.143857C11.2479 0.0562914 10.7535 0.00892239 10.1527 0.00155814C8.79029 -0.0130169 7.91488 0.0746636 7.52665 0.264485C7.37283 0.344686 7.23363 0.454267 7.10917 0.592884C6.97728 0.753555 6.95888 0.841236 7.05409 0.855657C7.49367 0.921283 7.80485 1.07827 7.988 1.32647L8.054 1.45799C8.10534 1.55288 8.1566 1.72088 8.2079 1.96175C8.25913 2.20262 8.29219 2.46908 8.30673 2.76096C8.34329 3.29399 8.34329 3.75027 8.30673 4.12983C8.27006 4.50955 8.23542 4.80516 8.20236 5.01688C8.1693 5.2286 8.11989 5.40016 8.054 5.53153C7.988 5.66294 7.94409 5.74325 7.92208 5.7724C7.9001 5.80155 7.88179 5.81993 7.86724 5.82714C7.77203 5.8635 7.67301 5.88202 7.57052 5.88202C7.46788 5.88202 7.34342 5.83086 7.19695 5.7286C7.05052 5.62635 6.89854 5.48589 6.74102 5.307C6.5835 5.12807 6.40586 4.87803 6.20801 4.55684C6.01031 4.23565 5.80519 3.85605 5.59275 3.41803L5.41699 3.10037C5.30712 2.89601 5.15703 2.59845 4.96657 2.20796C4.77599 1.8173 4.60754 1.43943 4.46111 1.0744C4.40257 0.921092 4.31464 0.804376 4.19745 0.72406L4.14246 0.691112C4.1059 0.661962 4.04721 0.631009 3.9667 0.598024C3.88607 0.565076 3.80194 0.541449 3.71397 0.526913L0.703347 0.548699C0.3957 0.548699 0.186959 0.61816 0.0770464 0.756892L0.0330584 0.822518C0.0110836 0.859071 0 0.917448 0 0.997802C0 1.07812 0.0219748 1.17669 0.0659628 1.29341C0.505458 2.32287 0.9834 3.3157 1.49979 4.27205C2.01618 5.22841 2.46491 5.99878 2.84571 6.58247C3.2266 7.16659 3.61483 7.71787 4.01042 8.23605C4.406 8.75442 4.66785 9.08662 4.79597 9.23256C4.92423 9.37877 5.02499 9.48809 5.09822 9.56108L5.37297 9.82385C5.54877 9.9991 5.80692 10.209 6.14755 10.4535C6.48825 10.6982 6.86544 10.939 7.27931 11.1765C7.69325 11.4136 8.17481 11.607 8.72425 11.7567C9.27362 11.9064 9.80833 11.9665 10.3285 11.9375H11.5921C11.8483 11.9155 12.0425 11.8352 12.1744 11.6966L12.2182 11.6417C12.2476 11.5981 12.2751 11.5304 12.3005 11.4393C12.3262 11.3481 12.339 11.2475 12.339 11.1382C12.3315 10.8243 12.3554 10.5414 12.4102 10.2896C12.465 10.0378 12.5274 9.84802 12.5972 9.72018C12.667 9.59245 12.7458 9.48467 12.8334 9.3973C12.9212 9.30973 12.9838 9.25669 13.0205 9.23843C13.057 9.22006 13.0861 9.20759 13.1081 9.20012C13.2839 9.14174 13.4908 9.19827 13.7291 9.36999C13.9672 9.54156 14.1905 9.75339 14.3994 10.0052C14.6082 10.2572 14.859 10.5399 15.152 10.8537C15.4451 11.1677 15.7014 11.4011 15.9211 11.5546L16.1408 11.686C16.2875 11.7737 16.4779 11.854 16.7124 11.927C16.9464 12 17.1514 12.0182 17.3275 11.9818L20.1402 11.938C20.4185 11.938 20.6349 11.8921 20.7885 11.801C20.9423 11.7098 21.0337 11.6093 21.0632 11.4999C21.0926 11.3904 21.0942 11.2662 21.0688 11.1274C21.0427 10.9889 21.0171 10.8921 20.9915 10.8373Z" fill="#F4CE77"/>
</svg>
